<svg width="147" height="24" viewBox="0 0 147 24" fill="none" xmlns="http://www.w3.org/2000/svg">
<g clip-path="url(#clip0_3720_28860)">
<path d="M2.15591 0H0V24H2.15591L13.2727 13.0553V10.9341L2.15591 0Z" fill="#0CEE77"/>
<path d="M38.8687 0H41.0246V24H38.8687L27.752 13.0553V10.9341L38.8687 0Z" fill="#0CEE77"/>
<path d="M65.1562 1H68.9272L73.2112 18.8863C73.2961 19.267 73.427 19.3927 73.7241 19.3927C74.0213 19.3927 74.1521 19.267 74.237 18.8863L78.5245 1H85.1644L89.4483 18.8863C89.5332 19.267 89.6641 19.3927 89.9613 19.3927C90.2584 19.3927 90.3893 19.267 90.4742 18.8863L94.7582 1H98.5291V1.84508L93.3042 22.9895H86.6855L82.2743 4.55143C82.1894 4.2546 82.0585 4.17079 81.8462 4.17079C81.588 4.17079 81.5031 4.2546 81.4182 4.55143L77.0069 22.9895H70.3882L65.1633 1.84508V1H65.1562Z" fill="black"/>
<path d="M124.439 22.1444L132.834 11.6578L125.037 1.84857V1H129.042L135.169 8.93048C135.254 9.03524 135.36 9.14349 135.576 9.14349C135.791 9.14349 135.897 9.03873 135.982 8.93048L142.173 1H146.156V1.88698L137.974 12.1222L145.94 22.1444V22.9895H141.915L135.639 14.8495C135.554 14.7448 135.445 14.6365 135.232 14.6365C135.02 14.6365 134.91 14.7413 134.826 14.8495L128.465 22.9895H124.439V22.1444Z" fill="black"/>
<path d="M100.394 1H123.487V4.52698H113.932V23H109.945V4.52698H100.391V1H100.394Z" fill="black"/>
</g>
<defs>
<clipPath id="clip0_3720_28860">
<rect width="147" height="24.0006" fill="white"/>
</clipPath>
</defs>
</svg>
